<?xml version="1.0" standalone="no"?><!DOCTYPE svg PUBLIC "-//W3C//DTD SVG 1.1//EN" "http://www.w3.org/Graphics/SVG/1.1/DTD/svg11.dtd"><svg t="1639106529599" class="icon" viewBox="0 0 1024 1024" version="1.1" xmlns="http://www.w3.org/2000/svg" p-id="8481" xmlns:xlink="http://www.w3.org/1999/xlink" width="200" height="200"><defs><style type="text/css"></style></defs><path d="M419.2 312.2c110.7-50.1 241-1 291 109.5 50.3 111.1 1.1 241.4-110.1 291.6C490 763 359.5 713.9 309.8 604c-50.4-111.3-1.6-241.5 109.4-291.8z m278.9 250.2c7.4-37.1 7-69.8-2.5-102.7-38.6 14.9-76.3 29.5-113.6 44-6.2-13.6-11.8-26-17.8-39.2 35.6-18.6 71.4-37.4 108-56.5-18.9-29-42.9-51.1-74.5-67-15.1 39.3-29.8 77.6-42.2 109.7-13.1-4.7-27-9.7-44.8-16.1 13.4-32.6 28.8-70 44.2-107.6-31.7-8.6-83.2-6.3-99.6 3.8 14.6 37.7 29.1 75.4 43.3 112.1-13.1 5.9-24.8 11.2-37.3 16.9-18.6-35.6-37.4-71.4-56.1-107.2-23.9 11.6-57.9 49.3-66.4 74 38.4 14.6 76.8 29.3 108.8 41.5-5 13.3-10.2 27.1-16.2 42.7-32.1-12.9-70-28.2-109.2-43.9-7.5 36-6.9 68.9 2.5 101.8 38.8-14.9 76.5-29.4 113.5-43.7 5.9 13.1 11.2 24.8 16.9 37.3-35.3 18.6-71.2 37.4-107.7 56.6 18.8 29 42.8 51.5 73.9 67.3 15.1-39.1 29.9-77.4 42.1-109.1 13.8 5 27.9 10 44.8 16.1-13.1 32.5-28.3 70.4-43.9 109.3 34.9 7.2 67.5 6.6 100.6-2.8C550 661 535.3 623 521.1 586.2c13.2-6 24.9-11.3 37.3-16.9 18.7 35.7 37.5 71.4 56.2 107.2 25-13 55.9-46.7 67-72.9-38.4-14.7-76.7-29.5-108.6-41.7 5.1-14.4 10-28.3 15.5-43.7 31.9 13 69.8 28.2 109.6 44.2zM780.8 420.6c-8.2-18.1-15.9-35.1-24.4-53.8 8.8-3 17.5-5.4 25.7-9 3.8-1.7 7.9-5 9.6-8.6 5.7-12.2 14.1-21 26.4-26.4 21.6-9.5 42.9-19.6 64.5-29.1 24.4-10.8 51-1.6 61.1 20.8 10.4 23 0.4 48.2-24.1 59.7-22.1 10.3-44.2 20.7-66.7 30-7.8 3.2-18.3 6.4-25.3 3.6-15.7-6.3-26.6 1.3-38.4 8.2-2.3 1.3-4.8 2.6-8.4 4.6zM362.6 266.6c-0.8-23.8-15.2-37.2-33.2-48.3-4.6-2.8-7.2-9.4-9.8-14.8-10-21.4-19.7-42.9-29.2-64.4-10.8-24.4-1.4-50.2 21.8-60.5 22.5-10 47.8 0.2 58.8 23.9 10.2 22.1 21 44.1 29.9 66.8 3.5 8.8 5.6 20.1 3.3 28.8-3 11.4-1.1 19.7 5 28.6 3.1 4.5 5.3 9.6 8.3 15.1-17.6 7.9-34.6 15.6-54.9 24.8zM769.3 639.7c6.2-17.9 12-34.5 18.1-52.2 2.3 0.8 6.4 2 10.4 3.6 11.4 4.6 22.1 8.7 35.3 3.3 6.8-2.8 16.8-0.8 24.3 1.9 24.4 8.9 48.4 18.8 72.4 28.9 23 9.7 32.6 33.3 23.7 56.5-8.3 21.7-32.2 32.4-55.4 24.2-23.3-8.3-46.7-16.7-69.5-26.3-8.1-3.4-17.4-8.9-21.5-16.1-6.7-11.9-16.8-16-28.1-19.8-4.2-1.5-8.1-3.3-9.7-4zM600.9 784.2c18.6-8.4 35.2-16 51.8-23.5 0.9 0.6 1.9 1 2.1 1.5 4.9 17.9 12.7 33 31.1 41.5 5.8 2.7 9.5 11.5 12.7 18.2 10.1 21.3 19.8 42.8 29.3 64.3 11.1 25.1 2.4 49.9-20.7 60.7-22.8 10.6-48.2 0.6-59.6-23.8-10.3-22.1-20-44.4-30.2-66.5-5.4-11.8-6-23.6-1.9-36.1 1.2-3.8 0.1-9.1-1.6-13-3.7-7.8-8.4-15.2-13-23.3zM238.5 603.7c8.2 18.1 15.8 34.8 24.1 53.2-7.5 2.7-15.5 4.8-22.7 8.5-5 2.6-9.1 7.3-13.3 11.4-7.8 7.6-14.1 17.9-23.2 22.8-22.1 11.9-45.5 21.6-68.5 31.7-23.9 10.4-49.4 0.9-59.5-21.8-10-22.2-0.6-47.4 22.4-58.4 23.1-11 46.2-22 70-31.3 9.1-3.5 20.4-3.9 30.1-2.1 8.1 1.5 14.2 1.8 21-3 5.8-4 12.4-7 19.6-11zM384.5 769.1c15.9 7.7 31.4 15.2 46.8 22.6 1.1-1.8 2.3-3.6 3.4-5.4-1.4 4-2.6 8.1-4.2 12-4.9 11.4-8.8 22.1-3.4 35.3 2.7 6.5 0.9 16-1.5 23.2-8.4 25-17.9 49.6-27.3 74.2-9.1 23.8-33.1 34.2-56.8 25.2-22.1-8.4-33.1-32.1-24.9-55 8.6-24.1 17.4-48.1 27.1-71.7 2.9-7.1 7.7-15.4 14-18.8 13.9-7.4 18.4-19.8 22.8-33 1-2.9 2.6-5.6 4-8.6zM248.9 385c-6.3 18.1-12.1 34.6-18.2 51.9-1.9-0.6-5.7-1.5-9.3-3-12.2-5.3-23.8-8.3-37.7-3.3-7.3 2.6-17.4-0.1-25.4-2.9-22.6-7.9-44.8-16.9-67.1-25.8-24.5-9.7-35.1-33.2-26.1-57.4 8.3-22.2 32.1-32.7 56.2-24.3 22.6 7.9 45.2 15.9 67.5 24.7 7.6 3 17 7.3 20.3 13.7 8 15.4 21.9 19.7 36.1 24.7 2.3 0.8 4.3 2 3.7 1.7zM636.3 253.7c-16.8-6.9-32.3-13.2-47.8-19.6l-2.4 3.6c1-3.2 1.6-6.6 2.9-9.7 5.3-12.9 10.5-25.2 4-39.9-2.5-5.7-0.6-14.4 1.6-20.9 8.9-25.7 18.5-51.1 28.4-76.4 8.3-21.1 31.6-31.4 53.5-24.4 22.2 7.1 34.9 28.6 27.7 51.1-8.8 27.4-19.7 54-30.2 80.8-1.8 4.7-5 10.2-9.1 12.3-17.9 9.5-23.8 26.6-28.6 43.1z" fill="#FF9D27" p-id="8482"></path><path d="M390.6 249.7C245.3 315.6 181 486.7 246.9 632S484 841.6 629.2 775.7c145.3-65.9 209.6-237.1 143.7-382.3s-237-209.6-382.3-143.7zM585.8 680c-92.4 41.9-201.3 1-243.2-91.4s-1-201.3 91.4-243.2c92.4-41.9 201.3-1 243.2 91.4s1 201.3-91.4 243.2z" fill="#FF9D27" p-id="8483"></path><path d="M476.1 438.1c-41.2 18.7-59.4 67.2-40.7 108.3 18.7 41.2 67.2 59.4 108.3 40.7 41.2-18.7 59.4-67.2 40.7-108.3-18.6-41.1-67.1-59.3-108.3-40.7z m55.3 122c-26.2 11.9-57 0.3-68.9-25.9-11.9-26.2-0.3-57 25.9-68.9 26.2-11.9 57-0.3 68.9 25.9 11.9 26.2 0.3 57-25.9 68.9z" fill="#FF9D27" p-id="8484"></path><path d="M772.9 397.4c-56.3-124.2-189.7-189.2-318-164.2 5.4-0.3 10.8-0.5 16.3-0.5 156.9 0 284 127.2 284 284s-127.2 284-284 284c-5.4 0-10.7-0.2-16-0.5 56.7 11 117.3 5.2 173.9-20.5 145.3-65.9 209.6-237.1 143.8-382.3z" fill="#FFFFFF" opacity=".39" p-id="8485"></path><path d="M514.8 223.8L513 329M506.8 696.4L505 802.1M693.6 515.8l105.1 1.8M327 509.6l-105.9-1.8" fill="#FF9D27" p-id="8486"></path></svg>